<svg width="1274" height="324" viewBox="0 0 1274 324" fill="none" xmlns="http://www.w3.org/2000/svg">
<path d="M421.948 249.16C421.851 191.965 421.65 135.463 421.515 78.9601C421.481 64.9756 421.795 50.9895 421.683 37.0062C421.633 30.7708 424.228 28.3343 430.438 28.6155C437.953 28.9558 445.496 28.7001 453.026 28.6798C466.596 28.6432 466.613 28.6362 466.627 41.8781C466.65 64.4834 466.649 87.0888 466.658 109.694C466.659 112.608 466.658 115.523 466.658 119.203C471.516 119.658 475.703 120.373 479.893 120.39C505.712 120.496 531.533 120.277 557.349 120.561C563.951 120.633 566.278 118.546 566.192 111.799C565.876 87.0451 566.226 62.2826 565.959 37.5272C565.889 31.0249 567.839 28.2257 574.663 28.5484C583.518 28.967 592.437 29.0507 601.276 28.4714C609.471 27.9343 610.466 32.2374 610.447 38.8529C610.281 99.1335 610.292 159.415 610.255 219.696C610.249 229.653 610.093 239.614 610.323 249.566C610.468 255.859 608.41 259.085 601.515 258.782C592.656 258.394 583.758 258.393 574.897 258.741C568.298 259 565.929 256.553 565.997 249.844C566.273 222.397 566.117 194.946 566.103 167.497C566.098 157.006 566.077 156.977 555.29 156.973C528.933 156.963 502.573 157.19 476.221 156.857C468.963 156.765 466.361 158.84 466.474 166.427C466.879 193.601 466.665 220.785 466.614 247.965C466.595 258.061 466.019 258.611 456.263 258.674C447.657 258.728 439.04 258.402 430.447 258.74C423.859 258.998 420.703 256.711 421.948 249.16Z" fill="#FD5E42"/>
<path d="M945.597 202.663C937.089 232.888 920.333 254.666 888.805 260.865C867.939 264.967 847.999 262.282 831.265 244.562C831.265 251.821 831.27 258 831.264 264.179C831.247 280.321 831.285 296.463 831.184 312.604C831.116 323.332 830.782 323.599 820.45 323.616C812.653 323.629 804.838 323.265 797.063 323.674C790.574 324.016 788.723 321.284 788.76 315.153C788.941 285.292 788.965 255.427 788.753 225.566C788.455 183.338 789.559 141.102 787.886 98.8797C787.437 87.5567 788.128 87.1513 799.556 87.0774C806.546 87.0322 813.55 87.3282 820.524 86.9899C827.3 86.6612 830.647 89.1816 830.303 96.2436C830.176 98.8476 829.982 101.673 832.54 104.584C841.743 94.3533 852.849 87.4318 866.52 84.8361C900.404 78.4026 930.186 95.041 942.31 127.455C951.466 151.936 951.635 176.846 945.597 202.663ZM887.434 221.833C893.434 217.41 898.017 211.771 900.578 204.813C908.165 184.198 909.109 163.253 901.806 142.43C895.826 125.382 882.409 117.267 864.12 118.537C847.015 119.724 835.894 129.582 831.766 147.212C828.096 162.89 828.042 178.744 830.669 194.477C835.638 224.231 859.62 236.084 887.434 221.833Z" fill="#FD5E42"/>
<path d="M145.27 0.0212197C149.029 0.0208983 151.986 0.0161184 154.944 0.0206282C167.756 0.0401984 168.523 0.925574 167.607 13.9824C166.021 36.5644 155.507 53.0377 134.838 62.9002C122.469 68.8027 110.354 75.2369 98.0471 81.2744C91.0006 84.7313 87.6772 90.2316 87.6861 98.0085C87.7211 128.408 87.7776 158.809 87.6501 189.208C87.6169 197.143 91.1463 202.486 98.0188 205.941C110.989 212.46 123.957 218.982 136.934 225.488C158.906 236.502 167.634 255.118 167.777 278.82C167.814 285.024 165.148 287.399 159.024 287.341C138.324 287.144 117.617 287.482 96.9202 287.131C83.8235 286.909 79.2504 281.845 79.1606 268.567C79.0497 252.158 78.7781 235.734 79.3164 219.341C79.646 209.304 75.4556 203.328 66.6285 199.186C52.0311 192.337 37.8279 184.649 23.2571 177.74C8.79179 170.882 0.132927 159.884 0.00144364 143.85C-0.130754 127.727 8.82591 116.711 22.9239 109.635C37.8189 102.158 52.6188 94.4808 67.6598 87.3106C75.9819 83.3433 79.5461 77.4097 79.3385 68.1755C78.9699 51.7742 79.0808 35.3532 79.3966 18.9482C79.6754 4.46462 84.0142 0.291 98.4939 0.110489C113.817 -0.0805702 129.143 0.0378065 145.27 0.0212197Z" fill="#FD5E42"/>
<path d="M320.931 98.5719C329.633 102.949 337.916 106.835 345.942 111.197C358.714 118.138 366.472 128.92 366.484 143.585C366.496 158.571 358.774 169.59 345.421 176.389C330.331 184.072 315.229 191.74 299.965 199.065C290.939 203.395 286.732 209.808 287.06 220.076C287.574 236.2 287.272 252.354 287.151 268.494C287.047 282.279 282.91 286.382 269.39 286.533C249.235 286.758 229.079 286.889 208.926 287.222C201.76 287.341 199.156 285.375 199.125 277.059C199.029 251.058 210.798 233.785 233.997 223.205C245.24 218.077 256.074 212.061 267.217 206.704C275.423 202.758 279.012 196.614 278.932 187.44C278.676 158.12 278.678 128.795 278.902 99.4748C278.972 90.27 275.217 84.3011 266.982 80.3799C254.122 74.2565 241.397 67.8379 228.748 61.2867C207.683 50.3765 196.786 29.1736 199.554 5.70695C200.064 1.38511 202.343 0.192611 205.905 0.1899C228.216 0.172894 250.535 -0.0701703 272.837 0.409033C282.284 0.612021 286.639 5.86311 286.92 16.6139C287.356 33.282 287.631 49.9845 287.035 66.6388C286.642 77.6531 291.079 84.4239 300.873 88.666C307.523 91.5463 313.898 95.0631 320.931 98.5719Z" fill="#FD5E42"/>
<path d="M697.591 115.18C684.598 115.619 674.693 119.485 671.388 132.885C670.464 136.631 667.967 137.888 664.231 137.833C654.824 137.695 645.413 137.73 636.004 137.812C631.105 137.854 629.592 136.073 630.297 130.896C633.384 108.205 649.348 91.4532 674.876 85.8798C693.232 81.8721 711.753 82.1037 729.984 87.009C756.168 94.0539 768.677 110.455 769.628 140.635C770.28 161.315 769.19 182.044 769.352 202.747C769.478 218.87 769.985 235.01 771.046 251.095C771.439 257.056 769.639 258.859 764.111 258.72C756.32 258.523 748.496 258.306 740.73 258.793C733.496 259.246 729.377 256.906 729.043 249.256C728.99 248.049 728.146 246.877 727.355 244.91C708.386 263.119 685.868 265.055 662.333 260.252C638.74 255.437 624.051 238.585 621.803 213.159C619.866 191.266 628.442 172.602 650.483 161.81C666.585 153.926 683.912 152.28 701.456 151.746C704.679 151.648 708.041 152.316 711.104 151.61C716.56 150.354 724.465 155.922 727.243 147.516C730.657 137.186 725.196 123.433 717.014 119.112C711.197 116.04 704.875 114.867 697.591 115.18ZM696.006 230.451C704.882 229.856 713.104 227.245 718.878 220.258C727.695 209.59 728.06 196.61 727.488 183.576C727.374 180.957 725.57 179.768 723.164 179.77C708.997 179.781 694.676 178.117 680.905 183.024C668.714 187.369 662.796 197.538 664.867 210.234C667.187 224.462 676.23 230.629 696.006 230.451Z" fill="#FD5E42"/>
<path d="M1262.15 203.022C1265.61 203.153 1268.29 203.216 1270.96 203.463C1271.68 203.529 1272.34 204.158 1273.93 205.014C1269.36 225.547 1259.13 242.162 1240.46 252.654C1190.01 281.004 1130.8 252.321 1121.59 195.363C1118.12 173.904 1119.68 152.945 1127.71 132.713C1152.96 69.0881 1232.18 73.8927 1258.6 106.231C1265.94 115.205 1270.76 125.159 1273.55 136.277C1274.96 141.916 1272.88 144.308 1267.08 144.2C1257.67 144.024 1248.25 144.011 1238.84 144.214C1234.34 144.312 1232.09 142.479 1230.74 138.197C1226.96 126.18 1218.58 119.583 1206.01 118.31C1191.64 116.855 1179.08 120.803 1172.53 134.134C1159.8 160.024 1160.11 186.679 1172.58 212.62C1178.11 224.118 1189.13 228.7 1201.46 228.411C1214.28 228.109 1224.26 222.052 1229.37 209.911C1231.62 204.541 1234.8 202.632 1240.4 202.934C1247.38 203.31 1254.38 203.024 1262.15 203.022Z" fill="#FD5E42"/>
<path d="M976.334 67.7222C976.349 60.4672 976.48 54.0069 976.34 47.5525C976.234 42.6584 977.908 39.9428 983.274 40.03C992.952 40.1874 1002.64 40.1854 1012.32 40.028C1017.67 39.9409 1019.27 42.5677 1019.18 47.5254C1019 57.4776 1019.39 67.4431 1019.08 77.389C1018.9 83.2435 1020.87 85.7619 1026.95 85.4319C1033.65 85.0684 1040.39 85.4562 1047.11 85.3829C1051.81 85.3317 1054.07 87.5705 1054.1 92.1977C1054.14 96.5024 1054.21 100.807 1054.19 105.112C1054.14 119.174 1054.13 119.174 1039.88 119.23C1039.61 119.231 1039.34 119.229 1039.08 119.226C1019.17 118.976 1019.16 118.976 1019.15 139.324C1019.13 161.657 1019.09 183.991 1019.14 206.324C1019.17 223.541 1022.98 227.766 1039.78 227.277C1047.5 227.052 1050.89 229.34 1049.82 237.195C1049.6 238.78 1049.79 240.419 1049.79 242.034C1049.78 259.029 1049.13 259.765 1031.69 260.405C1025.52 260.631 1019.31 260.712 1013.15 260.387C993.359 259.346 980.788 247.714 977.763 228.128C976.815 221.993 976.353 215.858 976.367 209.652C976.427 182.475 976.259 155.297 976.503 128.122C976.563 121.501 974.19 119.311 967.585 119.134C945.152 118.531 949.94 120.343 949.311 100.245C949.252 98.3634 949.442 96.4661 949.279 94.5969C948.664 87.5732 951.9 84.6195 958.779 85.3656C959.045 85.3944 959.317 85.3668 959.586 85.3629C978.095 85.0948 976.2 87.9835 976.334 67.7222Z" fill="#FD5E42"/>
<path d="M262.217 146.021C260.632 149.503 257.791 150.615 255.176 151.928C234.285 162.423 213.303 172.737 192.505 183.412C185.861 186.822 179.95 186.538 173.405 183.177C152.847 172.623 132.12 162.399 111.448 152.067C107.769 150.228 103.879 148.323 103.735 143.627C103.584 138.709 107.808 137.089 111.399 135.29C132.544 124.7 153.751 114.233 174.839 103.531C180.635 100.59 185.989 100.647 191.726 103.55C212.825 114.228 234.001 124.756 255.148 135.339C259.348 137.441 263.458 139.606 262.217 146.021Z" fill="#FD5E42"/>
<path d="M1107.94 226.074C1107.93 235.217 1107.78 243.556 1107.96 251.887C1108.06 256.647 1106.16 258.779 1101.34 258.718C1091.67 258.594 1081.99 258.573 1072.32 258.727C1066.99 258.811 1065.34 256.129 1065.35 251.228C1065.39 198.526 1065.37 145.824 1065.29 93.1213C1065.28 87.6968 1067.55 85.2623 1073.01 85.356C1081.61 85.5036 1090.23 85.7172 1098.8 85.2823C1105.83 84.9263 1108.12 87.5258 1108.08 94.5865C1107.81 138.145 1107.94 181.706 1107.94 226.074Z" fill="#FD5E42"/>
<path d="M1065.55 60.6895C1065.39 52.1732 1065.49 44.3935 1065.29 36.6218C1065.14 30.9415 1067.23 28.2881 1073.29 28.5148C1082.39 28.8555 1091.51 28.7197 1100.62 28.563C1105.51 28.4789 1108.17 30.0471 1108 35.4529C1107.77 43.2232 1107.84 51.0072 1107.97 58.7819C1108.05 63.1925 1106.18 65.0941 1101.76 65.0444C1091.84 64.933 1081.93 65.0268 1072.01 65.0285C1069.22 65.029 1066.56 64.7778 1065.55 60.6895Z" fill="#FD5E42"/>
</svg>
